<?xml version="1.0" encoding="UTF-8"?>
<svg version="1.1" xmlns="http://www.w3.org/2000/svg" width="1024" height="1024">
<path d="M0 0 C1.16668213 0.03951782 1.16668213 0.03951782 2.35693359 0.07983398 C7.83923771 0.38467472 7.83923771 0.38467472 10.09375 2.125 C10.4959375 2.66125 10.898125 3.1975 11.3125 3.75 C12.57086351 4.68371109 13.84262273 5.59955363 15.125 6.5 C21.80734328 11.49030039 27.24812834 17.49251338 29.3125 25.75 C30.51671865 37.6447312 29.114335 46.96693215 21.8125 56.6875 C14.58138554 65.24677834 5.90954269 72.37216572 -2.78515625 79.3828125 C-6.06756069 82.0599822 -9.28850217 84.8010464 -12.5 87.5625 C-13.08676514 88.0668457 -13.67353027 88.57119141 -14.27807617 89.09082031 C-16.08205268 90.64291344 -17.88496922 92.19622819 -19.6875 93.75 C-32.94079274 105.1742669 -32.94079274 105.1742669 -39.125 110.1875 C-43.55989317 113.78636029 -47.88317786 117.49732064 -52.1875 121.25 C-57.34605495 125.74743351 -62.56906886 130.13995284 -67.88671875 134.44921875 C-71.75916793 137.63035204 -75.55478783 140.89753555 -79.35351562 144.16601562 C-83.30453852 147.5655326 -87.26895279 150.94819225 -91.25 154.3125 C-91.7756958 154.757146 -92.3013916 155.20179199 -92.84301758 155.65991211 C-95.64133139 158.0254749 -98.44384468 160.38593208 -101.25 162.7421875 C-101.83579834 163.23517334 -102.42159668 163.72815918 -103.02514648 164.23608398 C-104.14053663 165.17465361 -105.25715464 166.11176681 -106.37524414 167.04711914 C-109.28358508 169.49656486 -112.04061753 172.02058668 -114.6875 174.75 C-116.6875 176.75 -116.6875 176.75 -118.40234375 177.52734375 C-121.74082491 179.31357384 -124.42348882 181.82510857 -127.25 184.3125 C-128.50964455 185.40583811 -129.77006904 186.49827826 -131.03125 187.58984375 C-131.65257812 188.12851074 -132.27390625 188.66717773 -132.9140625 189.22216797 C-137.09629286 192.82519628 -141.37915004 196.29964292 -145.6875 199.75 C-146.64527344 200.52730469 -147.60304688 201.30460938 -148.58984375 202.10546875 C-185.56040751 231.4301656 -231.24982571 248.74773359 -278.83007812 244.46728516 C-284.31611355 243.82618656 -289.76372847 242.98616914 -295.21679688 242.11352539 C-301.35168917 241.21087177 -307.48184767 240.58669336 -313.6875 240.75 C-313.6875 240.09 -313.6875 239.43 -313.6875 238.75 C-314.45741272 238.57318192 -315.22732544 238.39636383 -316.02056885 238.21418762 C-323.37285326 236.52530017 -330.72470169 234.83453202 -338.0760994 233.14178944 C-341.85307726 232.27216343 -345.63020427 231.40319805 -349.40771484 230.53588867 C-365.87214744 226.755196 -382.32450707 222.95351005 -398.6875 218.75 C-398.6875 219.41 -398.6875 220.07 -398.6875 220.75 C-399.3475 220.42 -400.0075 220.09 -400.6875 219.75 C-400.3575 219.09 -400.0275 218.43 -399.6875 217.75 C-401.60550415 217.57210937 -401.60550415 217.57210937 -403.56225586 217.390625 C-408.71371154 216.81560918 -413.65900632 215.71862558 -418.69140625 214.5 C-420.07548927 214.17273926 -420.07548927 214.17273926 -421.48753357 213.83886719 C-424.40957806 213.14760793 -427.3299238 212.44952359 -430.25 211.75 C-433.17373353 211.05087257 -436.09781655 210.3534184 -439.0231781 209.66113281 C-440.83507264 209.23227313 -442.64606131 208.79956098 -444.45594788 208.36230469 C-456.49228667 205.51113045 -469.44026208 204.35478373 -481.6875 206.75 C-482.0175 207.41 -482.3475 208.07 -482.6875 208.75 C-484.61628723 209.27844238 -484.61628723 209.27844238 -487.11645508 209.68945312 C-492.48900678 210.66999669 -497.61057468 212.10857967 -502.82421875 213.71875 C-503.74789749 213.99972534 -504.67157623 214.28070068 -505.62324524 214.57019043 C-508.5418806 215.45899868 -511.45847867 216.35428209 -514.375 217.25 C-517.30266537 218.14424939 -520.2307339 219.03716775 -523.15888977 219.92980957 C-524.97127329 220.48283992 -526.78329648 221.03705302 -528.59489441 221.59265137 C-533.27972918 223.02773152 -537.97260163 224.41707296 -542.6875 225.75 C-543.945625 226.12125 -545.20375 226.4925 -546.5 226.875 C-552.38815054 228.30416275 -558.14846359 228.5800696 -563.9375 226.6875 C-573.06426663 220.25727805 -574.83220462 211.79467877 -577.4375 201.5625 C-578.01372531 199.36681637 -578.59535027 197.17267718 -579.1807251 194.97941589 C-579.70663591 192.99898858 -580.21846139 191.01483662 -580.72949219 189.03051758 C-581.51171882 186.35192958 -582.38712011 184.19047231 -583.6875 181.75 C-584.05192233 180.08985384 -584.38722883 178.42293936 -584.6875 176.75 C-585.0175 175.76 -585.3475 174.77 -585.6875 173.75 C-586.1840497 171.21300657 -586.63907775 168.6705021 -587.08984375 166.125 C-587.60773347 163.50686447 -587.60773347 163.50686447 -589.6875 160.75 C-590.70137471 157.70837586 -590.77617221 154.94219944 -590.6875 151.75 C-591.3475 151.75 -592.0075 151.75 -592.6875 151.75 C-592.625625 150.656875 -592.56375 149.56375 -592.5 148.4375 C-592.5 142.92561029 -594.08550607 137.98173692 -595.6875 132.75 C-595.97367188 131.78449219 -596.25984375 130.81898438 -596.5546875 129.82421875 C-597.25601537 127.46308158 -597.96709342 125.10537187 -598.6875 122.75 C-599.1825 123.74 -599.1825 123.74 -599.6875 124.75 C-601.3235235 121.58020447 -601.77025888 119.15193664 -601.625 115.65625 C-601.56786111 110.6162939 -602.51572088 106.06859341 -603.6875 101.1875 C-605.11338906 95.21899817 -605.91292436 89.89985837 -605.6875 83.75 C-605.0275 83.75 -604.3675 83.75 -603.6875 83.75 C-603.5946875 82.88375 -603.5946875 82.88375 -603.5 82 C-602.32232437 78.73874442 -600.53524944 77.70378804 -597.6875 75.75 C-595.12097259 74.82402467 -592.69026572 74.05973394 -590.0625 73.3828125 C-588.95915817 73.08276558 -588.95915817 73.08276558 -587.83352661 72.7766571 C-586.26483695 72.35162707 -584.69464103 71.93212356 -583.12310791 71.51773071 C-580.66709855 70.86961628 -578.21578182 70.20593209 -575.76513672 69.5378418 C-569.90534933 67.94336039 -564.03928567 66.37303065 -558.16894531 64.81787109 C-542.58469964 60.6799506 -529.93255014 55.71863205 -517.1484375 45.48828125 C-492.06708196 25.45954661 -460.78569441 7.63532522 -427.8046875 7.58203125 C-427.06856232 7.57870285 -426.33243713 7.57537445 -425.57400513 7.57194519 C-424.02265033 7.56691012 -422.47128483 7.5645358 -420.91992188 7.56469727 C-418.58965376 7.56252531 -416.25987124 7.54437329 -413.9296875 7.52539062 C-404.99622121 7.49100231 -396.4839287 8.00968844 -387.6875 9.75 C-386.47827881 9.98360229 -386.47827881 9.98360229 -385.24462891 10.22192383 C-383.00330304 10.68520243 -380.78427477 11.20079181 -378.5625 11.75 C-377.34252319 12.05115723 -377.34252319 12.05115723 -376.09790039 12.35839844 C-364.84630346 15.30040153 -354.02379955 19.61065554 -343.18920898 23.79785156 C-341.37055052 24.49003152 -339.5335684 25.13464387 -337.6875 25.75 C-335.89372469 26.51591358 -334.1023793 27.28752545 -332.3125 28.0625 C-314.63894602 35.42116387 -297.31964166 37.09666943 -278.4375 38.3125 C-276.46109866 38.44309102 -274.48469893 38.57370642 -272.50830078 38.7043457 C-252.56955442 40.00577166 -232.67460909 40.97973689 -212.6875 40.75 C-212.6875 41.41 -212.6875 42.07 -212.6875 42.75 C-212.00945312 42.72679687 -211.33140625 42.70359375 -210.6328125 42.6796875 C-197.04868269 42.41628332 -185.62988182 45.3633988 -175.4453125 54.78515625 C-167.73960472 63.39842516 -166.99370911 72.73882866 -167.50830078 83.80126953 C-168.20382902 91.36490225 -172.20058655 97.68203807 -177.6875 102.75 C-179.64601344 104.14355764 -181.63877113 105.49282547 -183.6875 106.75 C-184.3475 107.41 -185.0075 108.07 -185.6875 108.75 C-195.12109661 112.34806404 -203.84684922 113.33062762 -213.88134766 113.26416016 C-215.23651927 113.26963892 -216.59168466 113.27689069 -217.94683838 113.28575134 C-220.83216594 113.30093023 -223.71713886 113.30395779 -226.6024971 113.29698563 C-231.16672633 113.28609202 -235.73059185 113.3037014 -240.29476929 113.32479858 C-247.50732937 113.35489306 -254.71977955 113.36673881 -261.93239725 113.37037504 C-274.87298192 113.37705948 -287.81349175 113.40605496 -300.7539829 113.4554714 C-305.29062693 113.471948 -309.8271111 113.47739092 -314.36378217 113.47388101 C-317.17847345 113.47344422 -319.99310407 113.48100325 -322.8077774 113.49055672 C-324.73440858 113.4945195 -326.66105217 113.48846786 -328.587677 113.48213196 C-329.73409668 113.4875148 -330.88051636 113.49289764 -332.06167603 113.4984436 C-333.05746485 113.49877909 -334.05325367 113.49911457 -335.07921791 113.49946022 C-337.79560234 113.76038382 -339.4079846 114.27328753 -341.6875 115.75 C-343.50744072 118.78323453 -343.68847111 120.69561776 -343.625 124.25 C-342.46034049 128.59806217 -341.24821477 130.00917988 -337.6875 132.75 C-334.65509112 133.44593891 -331.71372146 133.37315645 -328.61450195 133.30175781 C-327.70990234 133.30088165 -326.80530273 133.30000549 -325.87329102 133.29910278 C-322.89014988 133.29053721 -319.90859737 133.2467943 -316.92578125 133.203125 C-314.85264772 133.19125623 -312.77949944 133.18174706 -310.7063446 133.17449951 C-305.25373194 133.14976101 -299.80180199 133.09587032 -294.3494873 133.03503418 C-286.65369893 132.95453958 -278.9575803 132.91376067 -271.26152039 132.86834717 C-267.16257486 132.84404772 -263.06394512 132.80880757 -258.96516418 132.76495361 C-257.10088121 132.74854569 -255.23659798 132.73216635 -253.37231445 132.71582031 C-252.09045509 132.69864456 -252.09045509 132.69864456 -250.78269958 132.68112183 C-244.91353277 132.63698361 -244.91353277 132.63698361 -242.6875 133.75 C-241.6975 133.42 -240.7075 133.09 -239.6875 132.75 C-233.5039013 132.48285596 -227.25872026 132.40771751 -221.125 133.3125 C-217.89891204 133.72309301 -215.80329745 133.48312881 -212.6875 132.75 C-212.0275 133.08 -211.3675 133.41 -210.6875 133.75 C-191.50343658 133.66416526 -175.10101438 129.62744235 -160.77734375 116.0234375 C-158.35219409 113.38523731 -156.45021784 110.70747685 -154.72265625 107.57421875 C-153.6875 105.75 -153.6875 105.75 -152.1875 103.90625 C-150.32371886 101.22706462 -149.54781881 98.68962285 -148.625 95.5625 C-148.274375 94.41007813 -147.92375 93.25765625 -147.5625 92.0703125 C-146.83293873 89.30188803 -146.44047519 86.76691814 -146.125 83.9375 C-145.22520126 79.81010756 -143.32813662 78.39910853 -139.91796875 76.02734375 C-138.92450439 75.33326416 -137.93104004 74.63918457 -136.9074707 73.92407227 C-131.49412479 70.26906844 -126.04580774 66.67414913 -120.5625 63.125 C-117.26748883 60.98538236 -113.97418156 58.84315917 -110.68261719 56.69824219 C-108.77600594 55.45804348 -106.86558963 54.22366068 -104.95019531 52.99707031 C-104.14420898 52.47467773 -103.33822266 51.95228516 -102.5078125 51.4140625 C-101.81187988 50.96756348 -101.11594727 50.52106445 -100.39892578 50.06103516 C-98.40977017 48.68352979 -98.40977017 48.68352979 -96.6875 45.75 C-96.0275 45.75 -95.3675 45.75 -94.6875 45.75 C-92.43430988 44.46599029 -90.25012934 43.13923628 -88.0625 41.75 C-87.36737305 41.31284668 -86.67224609 40.87569336 -85.95605469 40.42529297 C-79.53890784 36.35740398 -73.24231105 32.11394721 -66.9375 27.875 C-37.75568036 8.29983262 -37.75568036 8.29983262 -23.6875 2.75 C-23.6875 2.09 -23.6875 1.43 -23.6875 0.75 C-15.74421747 -0.0800858 -7.97171794 -0.36073678 0 0 Z M-600.6875 114.75 C-599.6875 118.75 -599.6875 118.75 -599.6875 118.75 Z M-589.6875 156.75 C-588.6875 158.75 -588.6875 158.75 -588.6875 158.75 Z M-312.6875 238.75 C-308.6875 239.75 -308.6875 239.75 -308.6875 239.75 Z " fill="#155724" transform="translate(777.6875,591.25)"/>
<path d="M0 0 C1.33593432 -0.00525911 1.33593432 -0.00525911 2.69885722 -0.01062447 C5.69254292 -0.01995147 8.68603465 -0.01501176 11.67972851 -0.01015663 C13.84401441 -0.01389223 16.00829897 -0.01849338 18.17258137 -0.02388728 C24.12749142 -0.03614379 30.08234539 -0.03585369 36.03726518 -0.03349853 C42.45662358 -0.03309103 48.87596385 -0.04412303 55.29531384 -0.05361366 C67.87468725 -0.07023898 80.45404134 -0.07574979 93.03342477 -0.07683842 C103.25632041 -0.07775734 113.47920996 -0.08187314 123.70210361 -0.08823967 C126.64424663 -0.09003474 129.58638966 -0.09181437 132.52853268 -0.09358943 C133.6256555 -0.09425257 133.6256555 -0.09425257 134.74494242 -0.09492911 C155.31953166 -0.10723825 175.89411878 -0.11513016 196.46871185 -0.11424255 C197.63237971 -0.11419582 197.63237971 -0.11419582 198.81955602 -0.11414814 C202.75156777 -0.11398192 206.68357952 -0.11378384 210.61559127 -0.11357872 C211.39650977 -0.11353883 212.17742828 -0.11349894 212.98201099 -0.11345784 C214.56121857 -0.11337697 216.14042615 -0.11329337 217.71963373 -0.11320706 C242.29116908 -0.11198147 266.86264925 -0.12699591 291.43416882 -0.15435219 C319.03700436 -0.18507063 346.63980364 -0.20228484 374.24265736 -0.20042574 C377.18574345 -0.20027648 380.12882954 -0.20017907 383.07191563 -0.20011711 C384.15891792 -0.20008215 384.15891792 -0.20008215 385.26787985 -0.20004648 C396.93147982 -0.19998492 408.5950319 -0.21275856 420.25861763 -0.22998164 C431.97991808 -0.24693202 443.70113275 -0.24857335 455.42244045 -0.235763 C461.77287106 -0.2292201 468.12312798 -0.22916403 474.47354221 -0.2464695 C480.28605878 -0.26214644 486.09826317 -0.25939145 491.91077187 -0.24190123 C494.01437402 -0.2388195 496.11799917 -0.24250765 498.22157422 -0.25362138 C501.08074203 -0.26772757 503.93881258 -0.2571676 506.79794312 -0.24050903 C507.61486626 -0.25044539 508.43178941 -0.26038175 509.27346781 -0.27061921 C515.18675003 -0.19776726 519.96974315 1.25854163 525.08773327 4.25726891 C529.51901724 8.80217554 531.39105237 12.80208775 531.52523327 19.13226891 C531.36655723 28.52589035 528.66850049 38.99760637 521.87288952 45.86273766 C515.76665139 50.63281864 509.85499474 52.81143463 502.11898327 52.82367516 C501.44867077 52.96676109 500.77835827 53.10984703 500.08773327 53.25726891 C496.88936958 58.48198783 495.68067615 64.9356886 493.96273327 70.75726891 C493.59019421 71.99347984 493.21765514 73.22969078 492.83382702 74.50336266 C492.48191296 75.69058922 492.12999889 76.87781578 491.76742077 78.10101891 C491.44499401 79.185765 491.12256725 80.27051109 490.79036999 81.38812828 C489.92915624 84.41248032 489.92915624 84.41248032 490.08773327 88.25726891 C489.42773327 88.25726891 488.76773327 88.25726891 488.08773327 88.25726891 C487.9760783 88.86285637 487.86442333 89.46844383 487.74938488 90.09238243 C486.56888629 96.26608204 485.04561177 102.25471331 483.26742077 108.28070641 C482.72701276 110.14397506 482.18664945 112.00725668 481.64632702 113.87055016 C480.80073944 116.76766253 479.95336543 119.66424326 479.10482311 122.56049156 C478.27958475 125.38262643 477.46073735 128.20655812 476.64242077 131.03070641 C476.38620953 131.89738945 476.12999828 132.76407249 475.86602306 133.65701866 C475.63222942 134.4653112 475.39843578 135.27360374 475.15755749 136.10639 C474.95041119 136.81347099 474.74326488 137.52055199 474.52984142 138.24905968 C473.94439865 140.56562822 473.94439865 140.56562822 474.08773327 144.25726891 C473.42773327 144.25726891 472.76773327 144.25726891 472.08773327 144.25726891 C471.90210827 145.45351891 471.71648327 146.64976891 471.52523327 147.88226891 C468.41329739 161.53186352 460.16064431 173.48508254 448.77523327 181.56976891 C443.16936609 185.02571569 437.10348998 187.60757405 431.08773327 190.25726891 C430.42773327 190.58726891 429.76773327 190.91726891 429.08773327 191.25726891 C427.12936821 191.41136744 425.16607039 191.5042418 423.20270538 191.56856823 C421.9711436 191.60979248 420.73958181 191.65101673 419.47069997 191.69349021 C418.11489389 191.73304517 416.75907306 191.77209718 415.40323925 191.81068993 C414.71178795 191.8316423 414.02033666 191.85259467 413.30793229 191.87418196 C398.58522744 192.31718039 383.86595878 192.40794962 369.13703597 192.40265262 C365.47734863 192.40244316 361.81766845 192.40801695 358.15798473 192.41271019 C351.04075855 192.42089657 343.92354065 192.42375928 336.80631014 192.42432257 C331.01630028 192.42480258 325.22629308 192.42688105 319.43628407 192.43002319 C302.94334614 192.43878907 286.45041464 192.44344782 269.95747437 192.44269272 C269.07467123 192.44265276 268.1918681 192.44261281 267.28231335 192.44257164 C266.39840921 192.44253076 265.51450507 192.44248988 264.60381595 192.44244776 C250.23961416 192.4420402 235.87543844 192.451648 221.5112442 192.46571001 C206.68667135 192.48010629 191.86211121 192.48697872 177.0375312 192.48611623 C168.74424811 192.48578587 160.45099252 192.48846314 152.1577158 192.49929428 C145.11059905 192.50844129 138.06352235 192.51053948 131.01640221 192.50378486 C127.43123202 192.50054361 123.8461385 192.50037563 120.26097584 192.50913811 C70.8231646 192.62196244 70.8231646 192.62196244 53.40023327 176.81976891 C51.03789814 174.2020462 48.75375346 171.53395838 46.51742077 168.80805016 C44.97291519 167.01045116 44.97291519 167.01045116 42.08773327 165.25726891 C41.7214465 163.26304096 41.38641983 161.2627358 41.08773327 159.25726891 C40.42773327 158.92726891 39.76773327 158.59726891 39.08773327 158.25726891 C38.36079423 156.2783793 37.68957076 154.27772333 37.08773327 152.25726891 C36.09773327 152.25726891 35.10773327 152.25726891 34.08773327 152.25726891 C34.29913952 151.44902672 34.51054577 150.64078453 34.72835827 149.80805016 C35.19129749 145.23400934 34.17850253 141.78930576 32.83773327 137.44476891 C32.61988171 136.66939781 32.40203014 135.89402672 32.17757702 135.09515953 C31.58509032 133.11500663 30.84601052 131.18004336 30.08773327 129.25726891 C29.09773327 128.92726891 28.10773327 128.59726891 27.08773327 128.25726891 C27.08773327 127.26726891 27.08773327 126.27726891 27.08773327 125.25726891 C27.74773327 125.25726891 28.40773327 125.25726891 29.08773327 125.25726891 C28.90597546 124.66711998 28.72421764 124.07697105 28.53695202 123.46893883 C27.71622331 120.79552028 26.90191188 118.12018916 26.08773327 115.44476891 C25.80156139 114.51599937 25.51538952 113.58722984 25.22054577 112.63031578 C24.94984264 111.73764 24.67913952 110.84496422 24.40023327 109.92523766 C24.14886608 109.10305748 23.89749889 108.2808773 23.63851452 107.43378258 C23.08773327 105.25726891 23.08773327 105.25726891 23.08773327 102.25726891 C22.09773327 101.92726891 21.10773327 101.59726891 20.08773327 101.25726891 C20.02714733 100.12933922 19.96656139 99.00140953 19.90413952 97.83930016 C19.03298214 89.992738 16.33462351 82.46468638 14.02523327 74.94476891 C13.31483682 72.6223097 12.60683847 70.29923071 11.90549755 67.97402 C11.4713892 66.53549667 11.03204215 65.09854078 10.58674145 63.66344261 C9.57844577 60.32930606 9.08773327 57.78313618 9.08773327 54.25726891 C8.26531139 54.17090172 7.44288952 54.08453453 6.59554577 53.99555016 C-2.53733828 52.84603011 -9.94883596 50.96221506 -16.78726673 44.56976891 C-21.76227625 36.814607 -24.05120298 29.03547285 -24.22476673 19.88226891 C-24.26214954 18.59578453 -24.29953236 17.30930016 -24.33804798 15.98383141 C-23.72578956 10.62516592 -21.38147102 7.64914665 -17.53726673 4.00726891 C-11.88655933 0.24013064 -6.56300927 -0.03274259 0 0 Z M21.08773327 99.25726891 C22.08773327 101.25726891 22.08773327 101.25726891 22.08773327 101.25726891 Z " fill="#155724" transform="translate(245.9122667312622,375.74273109436035)"/>
<path d="M0 0 C0.93392578 0.85464844 0.93392578 0.85464844 1.88671875 1.7265625 C9.24414206 9.23278763 13.86719027 20.08678987 17 30 C17.33 30.66 17.66 31.32 18 32 C18.90078189 46.30741902 19.10904326 61.18001638 15 75 C14.79020508 75.7410498 14.58041016 76.48209961 14.36425781 77.24560547 C8.39709186 98.022495 -1.23786287 118.04145152 -12.73608398 136.32250977 C-15.0944996 140.18860558 -16.75436674 143.91275496 -18.25585938 148.17919922 C-21.23701393 155.44660078 -24.91383328 162.16260331 -32 166 C-47.10095401 171.04658277 -65.22043925 168.99081586 -80.87371063 168.63538361 C-87.38905636 168.51287936 -93.90411874 168.52735121 -100.42041016 168.52685547 C-111.3428304 168.5077681 -122.26150256 168.40531421 -133.18261719 168.23779297 C-144.42288862 168.06560759 -155.66183007 167.94452172 -166.90332031 167.89111328 C-167.5980737 167.88779491 -168.29282709 167.88447654 -169.00863361 167.88105762 C-172.49457275 167.86471946 -175.98051542 167.84937495 -179.46646118 167.83452415 C-208.31300666 167.7103505 -237.15616719 167.41088776 -266 167 C-266.33 166.34 -266.66 165.68 -267 165 C-266.34 165 -265.68 165 -265 165 C-264.75378906 164.45472656 -264.50757813 163.90945313 -264.25390625 163.34765625 C-257.80860551 151.28028633 -247.25680616 140.36105554 -238.1171875 130.3359375 C-236.20919797 128.23081252 -234.34952931 126.09386366 -232.5 123.9375 C-231.9328125 123.30972656 -231.365625 122.68195313 -230.78125 122.03515625 C-228.91786222 119.96092264 -228.91786222 119.96092264 -227.09375 117.43359375 C-224.86404651 114.70886281 -223.02633965 112.81228479 -220 111 C-214.76882711 110.53116847 -210.02588236 111.66587399 -205 113 C-204.31309082 113.16902832 -203.62618164 113.33805664 -202.91845703 113.51220703 C-181.0188442 118.96040339 -160.03497776 129.29294187 -142.74438477 143.79736328 C-137.35749709 148.19664379 -133.33420584 149.11302393 -126.3125 148.875 C-122.91201354 148.24510247 -122.91201354 148.24510247 -120.625 145.875 C-118.69502802 142.46043419 -118.27373277 139.9006919 -118 136 C-117.855625 135.030625 -117.71125 134.06125 -117.5625 133.0625 C-118.64378175 125.49352773 -124.98375902 120.94668988 -130.6875 116.5 C-131.25815186 116.05430664 -131.82880371 115.60861328 -132.41674805 115.14941406 C-135.82445897 112.54682616 -135.82445897 112.54682616 -140 112 C-140 111.34 -140 110.68 -140 110 C-140.94875 109.525625 -141.8975 109.05125 -142.875 108.5625 C-145.91247996 107.04376002 -148.73789594 105.53288733 -151.578125 103.68359375 C-155.81141044 101.03064596 -160.14223176 98.97650355 -164.75 97.0625 C-165.55477783 96.72476563 -166.35955566 96.38703125 -167.1887207 96.0390625 C-176.24787309 92.33824295 -185.58171563 89.6200496 -195 87 C-195 85 -195 85 -193.125 82.9375 C-189.71617081 79.66310351 -186.18039782 76.5235888 -182.65234375 73.37890625 C-180.98377683 71.88235654 -179.32804246 70.37124785 -177.69140625 68.83984375 C-172.56490568 64.07643428 -167.19575186 59.72671538 -161.625 55.5 C-160.9345459 54.97108154 -160.2440918 54.44216309 -159.53271484 53.8972168 C-158.87480957 53.40519775 -158.2169043 52.91317871 -157.5390625 52.40625 C-156.95334473 51.96603516 -156.36762695 51.52582031 -155.76416016 51.07226562 C-149.01231572 46.96845982 -139.36778454 50.10645592 -132.09765625 51.59375 C-119.4476441 54.78954254 -108.04641434 60.24884084 -96.81420898 66.74829102 C-96.08532471 67.16908936 -95.35644043 67.5898877 -94.60546875 68.0234375 C-93.95731201 68.40419434 -93.30915527 68.78495117 -92.64135742 69.17724609 C-91.00801219 70.14937253 -91.00801219 70.14937253 -89 70 C-87.32294017 71.65620829 -85.65855087 73.32525686 -84 75 C-81.79841497 76.8489795 -79.50896509 78.55520363 -77.1875 80.25 C-76.60935547 80.69601562 -76.03121094 81.14203125 -75.43554688 81.6015625 C-70.95885362 84.86633327 -67.55612537 85.83127996 -62 86 C-59.16341413 84.68326167 -59.16341413 84.68326167 -57 83 C-56.34 83 -55.68 83 -55 83 C-54.67 81.02 -54.34 79.04 -54 77 C-53.34 77 -52.68 77 -52 77 C-52.27194947 70.88113695 -52.97136638 66.85502 -57 62 C-57.46535156 61.43152344 -57.93070313 60.86304688 -58.41015625 60.27734375 C-74.41895332 42.51815429 -99.65208787 32.71255969 -122 26 C-122 25.01 -122 24.02 -122 23 C-118.97921146 19.98631919 -115.40893373 17.55775374 -112 15 C-110.85264604 14.11616905 -109.70551879 13.23204373 -108.55859375 12.34765625 C-77.91713033 -10.99213444 -32.71531641 -30.77008138 0 0 Z " fill="#155724" transform="translate(774,187)"/>
<path d="M0 0 C17.32517912 2.40822328 31.08889462 13.19996054 41.45703125 26.90234375 C49.09978823 38.31413157 53.09315082 51.08177982 55.89453125 64.40234375 C56.13171875 65.49417969 56.36890625 66.58601563 56.61328125 67.7109375 C58.16737383 75.40983034 58.16737383 75.40983034 56.89453125 79.40234375 C57.84972656 78.93183594 58.80492187 78.46132812 59.7890625 77.9765625 C77.13544703 69.55587804 94.06425331 65.89482123 112.89453125 72.40234375 C131.2363813 80.00455792 146.96960761 93.75401263 154.72460938 112.39794922 C158.89453125 123.43674616 158.89453125 123.43674616 158.89453125 128.40234375 C159.55453125 128.73234375 160.21453125 129.06234375 160.89453125 129.40234375 C161.65368398 142.49901935 162.12827302 155.32468103 160.89453125 168.40234375 C160.23453125 168.40234375 159.57453125 168.40234375 158.89453125 168.40234375 C158.73984375 170.10390625 158.73984375 170.10390625 158.58203125 171.83984375 C157.89453125 176.40234375 157.89453125 176.40234375 154.89453125 185.40234375 C82.62453125 185.40234375 10.35453125 185.40234375 -64.10546875 185.40234375 C-69.93870735 165.56933252 -69.93870735 165.56933252 -70.48046875 159.33984375 C-70.55152832 158.60072754 -70.62258789 157.86161133 -70.69580078 157.10009766 C-72.1372396 139.82863767 -69.26639552 122.76690382 -61.10546875 107.40234375 C-60.67621094 106.57476562 -60.24695313 105.7471875 -59.8046875 104.89453125 C-50.53855951 88.24160264 -34.86390881 76.28327281 -16.79296875 70.52734375 C-1.19808417 66.75764503 13.88971511 70.31065179 27.89453125 77.40234375 C28.55453125 77.73234375 29.21453125 78.06234375 29.89453125 78.40234375 C27.54409633 65.4845063 24.03112222 53.88406746 15.89453125 43.40234375 C15.45238281 42.82226562 15.01023437 42.2421875 14.5546875 41.64453125 C9.44811078 35.82005382 2.41855513 32.39369708 -4.2421875 28.63671875 C-7.02699085 27.05820235 -9.59634847 25.40023812 -12.10546875 23.40234375 C-13.09546875 22.74234375 -14.08546875 22.08234375 -15.10546875 21.40234375 C-14.61046875 19.91734375 -14.61046875 19.91734375 -14.10546875 18.40234375 C-14.14671875 17.30921875 -14.18796875 16.21609375 -14.23046875 15.08984375 C-14.09017419 10.95115409 -13.24220466 8.91269561 -11.10546875 5.40234375 C-10.58984375 4.45359375 -10.07421875 3.50484375 -9.54296875 2.52734375 C-6.28667705 -0.31147466 -4.22417676 -0.2535743 0 0 Z " fill="#155724" transform="translate(311.10546875,167.59765625)"/>
<path d="M0 0 C2.475 0.495 2.475 0.495 5 1 C5.33 2.32 5.66 3.64 6 5 C3.63158688 3.42105792 1.93254772 2.0245738 0 0 Z " fill="#155724" transform="translate(312,563)"/>
<path d="M0 0 C2.475 0.495 2.475 0.495 5 1 C3.68 1.33 2.36 1.66 1 2 C0.67 1.34 0.34 0.68 0 0 Z " fill="#155724" transform="translate(576,632)"/>
<path d="M0 0 C1.65 0 3.3 0 5 0 C4.34 0.66 3.68 1.32 3 2 C2.01 2 1.02 2 0 2 C0 1.34 0 0.68 0 0 Z " fill="#155724" transform="translate(424,822)"/>
<path d="M0 0 C1.32 0.33 2.64 0.66 4 1 C2.68 1.33 1.36 1.66 0 2 C0 1.34 0 0.68 0 0 Z " fill="#155724" transform="translate(352,805)"/>
<path d="M0 0 C1.65 0 3.3 0 5 0 C5 0.33 5 0.66 5 1 C3.35 1 1.7 1 0 1 C0 0.67 0 0.34 0 0 Z " fill="#155724" transform="translate(297,799)"/>
<path d="M0 0 C0.99 0.33 1.98 0.66 3 1 C2.01 1.33 1.02 1.66 0 2 C0 1.34 0 0.68 0 0 Z " fill="#155724" transform="translate(243,429)"/>
<path d="M0 0 C4 1 4 1 4 1 Z " fill="#155724" transform="translate(361,807)"/>
<path d="M0 0 C4 1 4 1 4 1 Z " fill="#155724" transform="translate(321,798)"/>
<path d="M0 0 C0.66 0.66 1.32 1.32 2 2 C1.01 2.495 1.01 2.495 0 3 C0 2.01 0 1.02 0 0 Z " fill="#155724" transform="translate(602,712)"/>
<path d="M0 0 C0.66 0 1.32 0 2 0 C2 0.66 2 1.32 2 2 C1.34 2 0.68 2 0 2 C0 1.34 0 0.68 0 0 Z " fill="#155724" transform="translate(208,656)"/>
<path d="M0 0 C0.66 0 1.32 0 2 0 C2 0.66 2 1.32 2 2 C1.34 2 0.68 2 0 2 C0 1.34 0 0.68 0 0 Z " fill="#155724" transform="translate(662,648)"/>
<path d="M0 0 C0.99 0.33 1.98 0.66 3 1 C2.01 1 1.02 1 0 1 C0 0.67 0 0.34 0 0 Z " fill="#155724" transform="translate(320,566)"/>
<path d="M0 0 C0.99 0.33 1.98 0.66 3 1 C2.01 1 1.02 1 0 1 C0 0.67 0 0.34 0 0 Z " fill="#155724" transform="translate(304,558)"/>
<path d="M0 0 C1 4 1 4 1 4 Z " fill="#155724" transform="translate(257,445)"/>
<path d="M0 0 C1.485 0.99 1.485 0.99 3 2 C2.01 2 1.02 2 0 2 C0 1.34 0 0.68 0 0 Z " fill="#155724" transform="translate(337,242)"/>
<path d="M0 0 C3 1 3 1 3 1 Z " fill="#155724" transform="translate(532,836)"/>
<path d="" fill="#155724" transform="translate(0,0)"/>
<path d="M0 0 C3 1 3 1 3 1 Z " fill="#155724" transform="translate(269,807)"/>
<path d="M0 0 C3 1 3 1 3 1 Z " fill="#155724" transform="translate(273,806)"/>
<path d="M0 0 C3 1 3 1 3 1 Z " fill="#155724" transform="translate(344,803)"/>
<path d="M0 0 C0.33 0.66 0.66 1.32 1 2 C0.34 1.67 -0.32 1.34 -1 1 C-0.67 0.67 -0.34 0.34 0 0 Z " fill="#155724" transform="translate(719,718)"/>
<path d="M0 0 C3 1 3 1 3 1 Z " fill="#155724" transform="translate(183,664)"/>
<path d="M0 0 C3 1 3 1 3 1 Z " fill="#155724" transform="translate(212,656)"/>
<path d="M0 0 C3 1 3 1 3 1 Z " fill="#155724" transform="translate(461,624)"/>
<path d="M0 0 C0.66 0 1.32 0 2 0 C1.67 0.66 1.34 1.32 1 2 C0.67 1.34 0.34 0.68 0 0 Z " fill="#155724" transform="translate(422,608)"/>
<path d="M0 0 C0.66 0.66 1.32 1.32 2 2 C1.34 2 0.68 2 0 2 C0 1.34 0 0.68 0 0 Z " fill="#155724" transform="translate(395,600)"/>
<path d="M0 0 C0.66 0.66 1.32 1.32 2 2 C1.34 2 0.68 2 0 2 C0 1.34 0 0.68 0 0 Z " fill="#155724" transform="translate(272,498)"/>
<path d="" fill="#155724" transform="translate(0,0)"/>
<path d="" fill="#155724" transform="translate(0,0)"/>
<path d="" fill="#155724" transform="translate(0,0)"/>
<path d="M0 0 C0.99 0.495 0.99 0.495 2 1 C1.01 1.495 1.01 1.495 0 2 C0 1.34 0 0.68 0 0 Z " fill="#155724" transform="translate(537,312)"/>
<path d="M0 0 C0.66 0.66 1.32 1.32 2 2 C1.34 2 0.68 2 0 2 C0 1.34 0 0.68 0 0 Z " fill="#155724" transform="translate(648,310)"/>
<path d="" fill="#155724" transform="translate(0,0)"/>
<path d="M0 0 C0.99 0.495 0.99 0.495 2 1 C1.01 1.495 1.01 1.495 0 2 C0 1.34 0 0.68 0 0 Z " fill="#155724" transform="translate(624,294)"/>
<path d="M0 0 C0.99 0.495 0.99 0.495 2 1 C1.01 1.495 1.01 1.495 0 2 C0 1.34 0 0.68 0 0 Z " fill="#155724" transform="translate(609,285)"/>
<path d="M0 0 C3 1 3 1 3 1 Z " fill="#155724" transform="translate(592,279)"/>
<path d="M0 0 C3 1 3 1 3 1 Z " fill="#155724" transform="translate(336,240)"/>
<path d="M0 0 C3 1 3 1 3 1 Z " fill="#155724" transform="translate(405,235)"/>
<path d="M0 0 C0.33 0.66 0.66 1.32 1 2 C0.34 1.67 -0.32 1.34 -1 1 C-0.67 0.67 -0.34 0.34 0 0 Z " fill="#155724" transform="translate(337,233)"/>
<path d="M0 0 C0.66 0.66 1.32 1.32 2 2 C1.34 2 0.68 2 0 2 C0 1.34 0 0.68 0 0 Z " fill="#155724" transform="translate(648,213)"/>
<path d="" fill="#155724" transform="translate(0,0)"/>
<path d="M0 0 C2 1 2 1 2 1 Z " fill="#155724" transform="translate(513,837)"/>
<path d="M0 0 C2 1 2 1 2 1 Z " fill="#155724" transform="translate(487,835)"/>
<path d="M0 0 C2 1 2 1 2 1 Z " fill="#155724" transform="translate(558,831)"/>
<path d="M0 0 C2 1 2 1 2 1 Z " fill="#155724" transform="translate(580,823)"/>
<path d="M0 0 C2 1 2 1 2 1 Z " fill="#155724" transform="translate(416,822)"/>
<path d="M0 0 C2 1 2 1 2 1 Z " fill="#155724" transform="translate(418,820)"/>
<path d="M0 0 C2 1 2 1 2 1 Z " fill="#155724" transform="translate(217,820)"/>
<path d="M0 0 C2 1 2 1 2 1 Z " fill="#155724" transform="translate(413,819)"/>
<path d="M0 0 C2 1 2 1 2 1 Z " fill="#155724" transform="translate(250,813)"/>
<path d="M0 0 C2 1 2 1 2 1 Z " fill="#155724" transform="translate(349,804)"/>
<path d="" fill="#155724" transform="translate(0,0)"/>
<path d="" fill="#155724" transform="translate(0,0)"/>
<path d="M0 0 C2 1 2 1 2 1 Z " fill="#155724" transform="translate(328,799)"/>
<path d="M0 0 C2 1 2 1 2 1 Z " fill="#155724" transform="translate(307,798)"/>
<path d="M0 0 C2 1 2 1 2 1 Z " fill="#155724" transform="translate(313,797)"/>
<path d="" fill="#155724" transform="translate(0,0)"/>
<path d="" fill="#155724" transform="translate(0,0)"/>
<path d="M0 0 C2 1 2 1 2 1 Z " fill="#155724" transform="translate(502,722)"/>
<path d="" fill="#155724" transform="translate(0,0)"/>
<path d="M0 0 C2 1 2 1 2 1 Z " fill="#155724" transform="translate(608,712)"/>
<path d="" fill="#155724" transform="translate(0,0)"/>
<path d="" fill="#155724" transform="translate(0,0)"/>
<path d="" fill="#155724" transform="translate(0,0)"/>
<path d="" fill="#155724" transform="translate(0,0)"/>
<path d="M0 0 C2 1 2 1 2 1 Z " fill="#155724" transform="translate(240,648)"/>
<path d="M0 0 C2 1 2 1 2 1 Z " fill="#155724" transform="translate(261,634)"/>
<path d="M0 0 C2 1 2 1 2 1 Z " fill="#155724" transform="translate(568,632)"/>
<path d="M0 0 C2 1 2 1 2 1 Z " fill="#155724" transform="translate(473,626)"/>
<path d="M0 0 C2 1 2 1 2 1 Z " fill="#155724" transform="translate(712,616)"/>
<path d="M0 0 C2 1 2 1 2 1 Z " fill="#155724" transform="translate(419,608)"/>
<path d="M0 0 C2 1 2 1 2 1 Z " fill="#155724" transform="translate(390,600)"/>
<path d="M0 0 C2 1 2 1 2 1 Z " fill="#155724" transform="translate(328,600)"/>
<path d="M0 0 C2 1 2 1 2 1 Z " fill="#155724" transform="translate(325,600)"/>
<path d="M0 0 C2 1 2 1 2 1 Z " fill="#155724" transform="translate(752,593)"/>
<path d="" fill="#155724" transform="translate(0,0)"/>
<path d="M0 0 C2 1 2 1 2 1 Z " fill="#155724" transform="translate(749,592)"/>
<path d="M0 0 C2 1 2 1 2 1 Z " fill="#155724" transform="translate(673,567)"/>
<path d="M0 0 C2 1 2 1 2 1 Z " fill="#155724" transform="translate(325,567)"/>
<path d="M0 0 C2 1 2 1 2 1 Z " fill="#155724" transform="translate(301,559)"/>
<path d="" fill="#155724" transform="translate(0,0)"/>
<path d="" fill="#155724" transform="translate(0,0)"/>
<path d="" fill="#155724" transform="translate(0,0)"/>
<path d="" fill="#155724" transform="translate(0,0)"/>
<path d="" fill="#155724" transform="translate(0,0)"/>
<path d="" fill="#155724" transform="translate(0,0)"/>
<path d="" fill="#155724" transform="translate(0,0)"/>
<path d="" fill="#155724" transform="translate(0,0)"/>
<path d="" fill="#155724" transform="translate(0,0)"/>
<path d="" fill="#155724" transform="translate(0,0)"/>
<path d="M0 0 C2 1 2 1 2 1 Z " fill="#155724" transform="translate(611,286)"/>
<path d="" fill="#155724" transform="translate(0,0)"/>
<path d="M0 0 C2 1 2 1 2 1 Z " fill="#155724" transform="translate(709,272)"/>
<path d="M0 0 C2 1 2 1 2 1 Z " fill="#155724" transform="translate(462,272)"/>
<path d="M0 0 C2 1 2 1 2 1 Z " fill="#155724" transform="translate(694,264)"/>
<path d="" fill="#155724" transform="translate(0,0)"/>
<path d="" fill="#155724" transform="translate(0,0)"/>
<path d="" fill="#155724" transform="translate(0,0)"/>
<path d="" fill="#155724" transform="translate(0,0)"/>
<path d="M0 0 C2 1 2 1 2 1 Z " fill="#155724" transform="translate(426,240)"/>
<path d="M0 0 C2 1 2 1 2 1 Z " fill="#155724" transform="translate(305,235)"/>
<path d="" fill="#155724" transform="translate(0,0)"/>
<path d="M0 0 C2 1 2 1 2 1 Z " fill="#155724" transform="translate(675,222)"/>
<path d="" fill="#155724" transform="translate(0,0)"/>
<path d="" fill="#155724" transform="translate(0,0)"/>
<path d="M0 0 C2 1 2 1 2 1 Z " fill="#155724" transform="translate(760,176)"/>
<path d="M0 0 C2 1 2 1 2 1 Z " fill="#155724" transform="translate(298,169)"/>
<path d="M0 0 C2 1 2 1 2 1 Z " fill="#155724" transform="translate(320,168)"/>
<path d="" fill="#155724" transform="translate(0,0)"/>
<path d="" fill="#155724" transform="translate(0,0)"/>
<path d="" fill="#155724" transform="translate(0,0)"/>
<path d="" fill="#155724" transform="translate(0,0)"/>
<path d="" fill="#155724" transform="translate(0,0)"/>
<path d="" fill="#155724" transform="translate(0,0)"/>
<path d="" fill="#155724" transform="translate(0,0)"/>
<path d="" fill="#155724" transform="translate(0,0)"/>
<path d="" fill="#155724" transform="translate(0,0)"/>
<path d="" fill="#155724" transform="translate(0,0)"/>
<path d="" fill="#155724" transform="translate(0,0)"/>
<path d="" fill="#155724" transform="translate(0,0)"/>
<path d="" fill="#155724" transform="translate(0,0)"/>
<path d="" fill="#155724" transform="translate(0,0)"/>
<path d="" fill="#155724" transform="translate(0,0)"/>
<path d="" fill="#155724" transform="translate(0,0)"/>
<path d="" fill="#155724" transform="translate(0,0)"/>
<path d="" fill="#155724" transform="translate(0,0)"/>
<path d="" fill="#155724" transform="translate(0,0)"/>
<path d="" fill="#155724" transform="translate(0,0)"/>
<path d="" fill="#155724" transform="translate(0,0)"/>
<path d="" fill="#155724" transform="translate(0,0)"/>
<path d="" fill="#155724" transform="translate(0,0)"/>
<path d="" fill="#155724" transform="translate(0,0)"/>
<path d="" fill="#155724" transform="translate(0,0)"/>
<path d="" fill="#155724" transform="translate(0,0)"/>
<path d="" fill="#155724" transform="translate(0,0)"/>
<path d="" fill="#155724" transform="translate(0,0)"/>
<path d="" fill="#155724" transform="translate(0,0)"/>
<path d="" fill="#155724" transform="translate(0,0)"/>
<path d="" fill="#155724" transform="translate(0,0)"/>
<path d="" fill="#155724" transform="translate(0,0)"/>
<path d="" fill="#155724" transform="translate(0,0)"/>
<path d="" fill="#155724" transform="translate(0,0)"/>
<path d="" fill="#155724" transform="translate(0,0)"/>
<path d="" fill="#155724" transform="translate(0,0)"/>
<path d="" fill="#155724" transform="translate(0,0)"/>
<path d="" fill="#155724" transform="translate(0,0)"/>
<path d="" fill="#155724" transform="translate(0,0)"/>
<path d="" fill="#155724" transform="translate(0,0)"/>
<path d="" fill="#155724" transform="translate(0,0)"/>
<path d="" fill="#155724" transform="translate(0,0)"/>
<path d="" fill="#155724" transform="translate(0,0)"/>
<path d="" fill="#155724" transform="translate(0,0)"/>
<path d="" fill="#155724" transform="translate(0,0)"/>
<path d="" fill="#155724" transform="translate(0,0)"/>
<path d="" fill="#155724" transform="translate(0,0)"/>
<path d="" fill="#155724" transform="translate(0,0)"/>
<path d="" fill="#155724" transform="translate(0,0)"/>
<path d="" fill="#155724" transform="translate(0,0)"/>
<path d="" fill="#155724" transform="translate(0,0)"/>
<path d="" fill="#155724" transform="translate(0,0)"/>
<path d="" fill="#155724" transform="translate(0,0)"/>
<path d="" fill="#155724" transform="translate(0,0)"/>
<path d="" fill="#155724" transform="translate(0,0)"/>
<path d="" fill="#155724" transform="translate(0,0)"/>
<path d="" fill="#155724" transform="translate(0,0)"/>
<path d="" fill="#155724" transform="translate(0,0)"/>
<path d="" fill="#155724" transform="translate(0,0)"/>
<path d="" fill="#155724" transform="translate(0,0)"/>
<path d="" fill="#155724" transform="translate(0,0)"/>
<path d="" fill="#155724" transform="translate(0,0)"/>
<path d="" fill="#155724" transform="translate(0,0)"/>
<path d="" fill="#155724" transform="translate(0,0)"/>
<path d="" fill="#155724" transform="translate(0,0)"/>
<path d="" fill="#155724" transform="translate(0,0)"/>
<path d="" fill="#155724" transform="translate(0,0)"/>
<path d="" fill="#155724" transform="translate(0,0)"/>
<path d="" fill="#155724" transform="translate(0,0)"/>
<path d="" fill="#155724" transform="translate(0,0)"/>
<path d="" fill="#155724" transform="translate(0,0)"/>
<path d="" fill="#155724" transform="translate(0,0)"/>
<path d="" fill="#155724" transform="translate(0,0)"/>
<path d="" fill="#155724" transform="translate(0,0)"/>
<path d="" fill="#155724" transform="translate(0,0)"/>
<path d="" fill="#155724" transform="translate(0,0)"/>
<path d="" fill="#155724" transform="translate(0,0)"/>
<path d="" fill="#155724" transform="translate(0,0)"/>
<path d="" fill="#155724" transform="translate(0,0)"/>
<path d="" fill="#155724" transform="translate(0,0)"/>
<path d="" fill="#155724" transform="translate(0,0)"/>
<path d="" fill="#155724" transform="translate(0,0)"/>
<path d="" fill="#155724" transform="translate(0,0)"/>
<path d="" fill="#155724" transform="translate(0,0)"/>
<path d="" fill="#155724" transform="translate(0,0)"/>
<path d="" fill="#155724" transform="translate(0,0)"/>
<path d="" fill="#155724" transform="translate(0,0)"/>
<path d="" fill="#155724" transform="translate(0,0)"/>
<path d="" fill="#155724" transform="translate(0,0)"/>
<path d="" fill="#155724" transform="translate(0,0)"/>
<path d="" fill="#155724" transform="translate(0,0)"/>
<path d="" fill="#155724" transform="translate(0,0)"/>
<path d="" fill="#155724" transform="translate(0,0)"/>
<path d="" fill="#155724" transform="translate(0,0)"/>
<path d="" fill="#155724" transform="translate(0,0)"/>
<path d="" fill="#155724" transform="translate(0,0)"/>
<path d="" fill="#155724" transform="translate(0,0)"/>
<path d="" fill="#155724" transform="translate(0,0)"/>
<path d="" fill="#155724" transform="translate(0,0)"/>
<path d="" fill="#155724" transform="translate(0,0)"/>
<path d="" fill="#155724" transform="translate(0,0)"/>
<path d="" fill="#155724" transform="translate(0,0)"/>
<path d="" fill="#155724" transform="translate(0,0)"/>
<path d="" fill="#155724" transform="translate(0,0)"/>
<path d="" fill="#155724" transform="translate(0,0)"/>
<path d="" fill="#155724" transform="translate(0,0)"/>
<path d="" fill="#155724" transform="translate(0,0)"/>
<path d="" fill="#155724" transform="translate(0,0)"/>
<path d="" fill="#155724" transform="translate(0,0)"/>
<path d="" fill="#155724" transform="translate(0,0)"/>
<path d="" fill="#155724" transform="translate(0,0)"/>
<path d="" fill="#155724" transform="translate(0,0)"/>
<path d="" fill="#155724" transform="translate(0,0)"/>
<path d="" fill="#155724" transform="translate(0,0)"/>
<path d="" fill="#155724" transform="translate(0,0)"/>
<path d="" fill="#155724" transform="translate(0,0)"/>
<path d="" fill="#155724" transform="translate(0,0)"/>
<path d="" fill="#155724" transform="translate(0,0)"/>
<path d="" fill="#155724" transform="translate(0,0)"/>
<path d="" fill="#155724" transform="translate(0,0)"/>
<path d="" fill="#155724" transform="translate(0,0)"/>
<path d="" fill="#155724" transform="translate(0,0)"/>
<path d="" fill="#155724" transform="translate(0,0)"/>
<path d="" fill="#155724" transform="translate(0,0)"/>
<path d="" fill="#155724" transform="translate(0,0)"/>
<path d="" fill="#155724" transform="translate(0,0)"/>
<path d="" fill="#155724" transform="translate(0,0)"/>
<path d="" fill="#155724" transform="translate(0,0)"/>
<path d="" fill="#155724" transform="translate(0,0)"/>
<path d="" fill="#155724" transform="translate(0,0)"/>
<path d="" fill="#155724" transform="translate(0,0)"/>
<path d="" fill="#155724" transform="translate(0,0)"/>
<path d="" fill="#155724" transform="translate(0,0)"/>
<path d="" fill="#155724" transform="translate(0,0)"/>
<path d="" fill="#155724" transform="translate(0,0)"/>
<path d="" fill="#155724" transform="translate(0,0)"/>
<path d="" fill="#155724" transform="translate(0,0)"/>
<path d="" fill="#155724" transform="translate(0,0)"/>
<path d="" fill="#155724" transform="translate(0,0)"/>
<path d="" fill="#155724" transform="translate(0,0)"/>
<path d="" fill="#155724" transform="translate(0,0)"/>
<path d="" fill="#155724" transform="translate(0,0)"/>
<path d="" fill="#155724" transform="translate(0,0)"/>
<path d="" fill="#155724" transform="translate(0,0)"/>
<path d="" fill="#155724" transform="translate(0,0)"/>
<path d="" fill="#155724" transform="translate(0,0)"/>
<path d="" fill="#155724" transform="translate(0,0)"/>
<path d="" fill="#155724" transform="translate(0,0)"/>
<path d="" fill="#155724" transform="translate(0,0)"/>
<path d="" fill="#155724" transform="translate(0,0)"/>
<path d="" fill="#155724" transform="translate(0,0)"/>
<path d="" fill="#155724" transform="translate(0,0)"/>
<path d="" fill="#155724" transform="translate(0,0)"/>
<path d="" fill="#155724" transform="translate(0,0)"/>
<path d="" fill="#155724" transform="translate(0,0)"/>
<path d="" fill="#155724" transform="translate(0,0)"/>
<path d="" fill="#155724" transform="translate(0,0)"/>
<path d="" fill="#155724" transform="translate(0,0)"/>
<path d="" fill="#155724" transform="translate(0,0)"/>
<path d="" fill="#155724" transform="translate(0,0)"/>
<path d="" fill="#155724" transform="translate(0,0)"/>
<path d="" fill="#155724" transform="translate(0,0)"/>
<path d="" fill="#155724" transform="translate(0,0)"/>
<path d="" fill="#155724" transform="translate(0,0)"/>
<path d="" fill="#155724" transform="translate(0,0)"/>
<path d="" fill="#155724" transform="translate(0,0)"/>
<path d="" fill="#155724" transform="translate(0,0)"/>
<path d="" fill="#155724" transform="translate(0,0)"/>
<path d="" fill="#155724" transform="translate(0,0)"/>
<path d="" fill="#155724" transform="translate(0,0)"/>
<path d="" fill="#155724" transform="translate(0,0)"/>
<path d="" fill="#155724" transform="translate(0,0)"/>
<path d="" fill="#155724" transform="translate(0,0)"/>
<path d="" fill="#155724" transform="translate(0,0)"/>
<path d="" fill="#155724" transform="translate(0,0)"/>
<path d="" fill="#155724" transform="translate(0,0)"/>
<path d="" fill="#155724" transform="translate(0,0)"/>
<path d="" fill="#155724" transform="translate(0,0)"/>
<path d="" fill="#155724" transform="translate(0,0)"/>
<path d="" fill="#155724" transform="translate(0,0)"/>
<path d="" fill="#155724" transform="translate(0,0)"/>
<path d="" fill="#155724" transform="translate(0,0)"/>
<path d="" fill="#155724" transform="translate(0,0)"/>
<path d="" fill="#155724" transform="translate(0,0)"/>
<path d="" fill="#155724" transform="translate(0,0)"/>
<path d="" fill="#155724" transform="translate(0,0)"/>
<path d="" fill="#155724" transform="translate(0,0)"/>
<path d="" fill="#155724" transform="translate(0,0)"/>
<path d="" fill="#155724" transform="translate(0,0)"/>
<path d="" fill="#155724" transform="translate(0,0)"/>
<path d="" fill="#155724" transform="translate(0,0)"/>
<path d="" fill="#155724" transform="translate(0,0)"/>
<path d="" fill="#155724" transform="translate(0,0)"/>
<path d="" fill="#155724" transform="translate(0,0)"/>
<path d="" fill="#155724" transform="translate(0,0)"/>
<path d="" fill="#155724" transform="translate(0,0)"/>
<path d="" fill="#155724" transform="translate(0,0)"/>
<path d="" fill="#155724" transform="translate(0,0)"/>
<path d="" fill="#155724" transform="translate(0,0)"/>
<path d="" fill="#155724" transform="translate(0,0)"/>
<path d="" fill="#155724" transform="translate(0,0)"/>
<path d="" fill="#155724" transform="translate(0,0)"/>
<path d="" fill="#155724" transform="translate(0,0)"/>
<path d="" fill="#155724" transform="translate(0,0)"/>
<path d="" fill="#155724" transform="translate(0,0)"/>
<path d="" fill="#155724" transform="translate(0,0)"/>
<path d="" fill="#155724" transform="translate(0,0)"/>
<path d="" fill="#155724" transform="translate(0,0)"/>
<path d="" fill="#155724" transform="translate(0,0)"/>
<path d="" fill="#155724" transform="translate(0,0)"/>
<path d="" fill="#155724" transform="translate(0,0)"/>
<path d="" fill="#155724" transform="translate(0,0)"/>
<path d="" fill="#155724" transform="translate(0,0)"/>
<path d="" fill="#155724" transform="translate(0,0)"/>
<path d="" fill="#155724" transform="translate(0,0)"/>
<path d="" fill="#155724" transform="translate(0,0)"/>
<path d="" fill="#155724" transform="translate(0,0)"/>
<path d="" fill="#155724" transform="translate(0,0)"/>
<path d="" fill="#155724" transform="translate(0,0)"/>
<path d="" fill="#155724" transform="translate(0,0)"/>
<path d="" fill="#155724" transform="translate(0,0)"/>
<path d="" fill="#155724" transform="translate(0,0)"/>
<path d="" fill="#155724" transform="translate(0,0)"/>
<path d="" fill="#155724" transform="translate(0,0)"/>
<path d="" fill="#155724" transform="translate(0,0)"/>
<path d="" fill="#155724" transform="translate(0,0)"/>
<path d="" fill="#155724" transform="translate(0,0)"/>
<path d="" fill="#155724" transform="translate(0,0)"/>
<path d="" fill="#155724" transform="translate(0,0)"/>
<path d="" fill="#155724" transform="translate(0,0)"/>
<path d="" fill="#155724" transform="translate(0,0)"/>
<path d="" fill="#155724" transform="translate(0,0)"/>
<path d="" fill="#155724" transform="translate(0,0)"/>
<path d="" fill="#155724" transform="translate(0,0)"/>
<path d="" fill="#155724" transform="translate(0,0)"/>
<path d="" fill="#155724" transform="translate(0,0)"/>
<path d="" fill="#155724" transform="translate(0,0)"/>
<path d="" fill="#155724" transform="translate(0,0)"/>
<path d="" fill="#155724" transform="translate(0,0)"/>
<path d="" fill="#155724" transform="translate(0,0)"/>
<path d="" fill="#155724" transform="translate(0,0)"/>
<path d="" fill="#155724" transform="translate(0,0)"/>
<path d="" fill="#155724" transform="translate(0,0)"/>
<path d="" fill="#155724" transform="translate(0,0)"/>
<path d="" fill="#155724" transform="translate(0,0)"/>
<path d="" fill="#155724" transform="translate(0,0)"/>
<path d="" fill="#155724" transform="translate(0,0)"/>
<path d="" fill="#155724" transform="translate(0,0)"/>
<path d="" fill="#155724" transform="translate(0,0)"/>
<path d="" fill="#155724" transform="translate(0,0)"/>
<path d="" fill="#155724" transform="translate(0,0)"/>
<path d="" fill="#155724" transform="translate(0,0)"/>
<path d="" fill="#155724" transform="translate(0,0)"/>
<path d="" fill="#155724" transform="translate(0,0)"/>
<path d="" fill="#155724" transform="translate(0,0)"/>
<path d="" fill="#155724" transform="translate(0,0)"/>
<path d="" fill="#155724" transform="translate(0,0)"/>
<path d="" fill="#155724" transform="translate(0,0)"/>
<path d="" fill="#155724" transform="translate(0,0)"/>
<path d="" fill="#155724" transform="translate(0,0)"/>
<path d="" fill="#155724" transform="translate(0,0)"/>
<path d="" fill="#155724" transform="translate(0,0)"/>
<path d="" fill="#155724" transform="translate(0,0)"/>
<path d="" fill="#155724" transform="translate(0,0)"/>
<path d="" fill="#155724" transform="translate(0,0)"/>
<path d="" fill="#155724" transform="translate(0,0)"/>
<path d="" fill="#155724" transform="translate(0,0)"/>
<path d="" fill="#155724" transform="translate(0,0)"/>
<path d="" fill="#155724" transform="translate(0,0)"/>
<path d="" fill="#155724" transform="translate(0,0)"/>
<path d="" fill="#155724" transform="translate(0,0)"/>
<path d="" fill="#155724" transform="translate(0,0)"/>
<path d="" fill="#155724" transform="translate(0,0)"/>
<path d="" fill="#155724" transform="translate(0,0)"/>
<path d="" fill="#155724" transform="translate(0,0)"/>
<path d="" fill="#155724" transform="translate(0,0)"/>
<path d="" fill="#155724" transform="translate(0,0)"/>
<path d="" fill="#155724" transform="translate(0,0)"/>
<path d="" fill="#155724" transform="translate(0,0)"/>
<path d="" fill="#155724" transform="translate(0,0)"/>
<path d="" fill="#155724" transform="translate(0,0)"/>
<path d="" fill="#155724" transform="translate(0,0)"/>
<path d="" fill="#155724" transform="translate(0,0)"/>
<path d="" fill="#155724" transform="translate(0,0)"/>
<path d="" fill="#155724" transform="translate(0,0)"/>
<path d="" fill="#155724" transform="translate(0,0)"/>
<path d="" fill="#155724" transform="translate(0,0)"/>
<path d="" fill="#155724" transform="translate(0,0)"/>
<path d="" fill="#155724" transform="translate(0,0)"/>
<path d="" fill="#155724" transform="translate(0,0)"/>
<path d="" fill="#155724" transform="translate(0,0)"/>
<path d="" fill="#155724" transform="translate(0,0)"/>
<path d="" fill="#155724" transform="translate(0,0)"/>
<path d="" fill="#155724" transform="translate(0,0)"/>
<path d="" fill="#155724" transform="translate(0,0)"/>
<path d="" fill="#155724" transform="translate(0,0)"/>
<path d="" fill="#155724" transform="translate(0,0)"/>
<path d="" fill="#155724" transform="translate(0,0)"/>
<path d="" fill="#155724" transform="translate(0,0)"/>
<path d="" fill="#155724" transform="translate(0,0)"/>
<path d="" fill="#155724" transform="translate(0,0)"/>
<path d="" fill="#155724" transform="translate(0,0)"/>
<path d="" fill="#155724" transform="translate(0,0)"/>
<path d="" fill="#155724" transform="translate(0,0)"/>
<path d="" fill="#155724" transform="translate(0,0)"/>
<path d="" fill="#155724" transform="translate(0,0)"/>
<path d="" fill="#155724" transform="translate(0,0)"/>
<path d="" fill="#155724" transform="translate(0,0)"/>
<path d="" fill="#155724" transform="translate(0,0)"/>
<path d="" fill="#155724" transform="translate(0,0)"/>
<path d="" fill="#155724" transform="translate(0,0)"/>
<path d="" fill="#155724" transform="translate(0,0)"/>
<path d="" fill="#155724" transform="translate(0,0)"/>
<path d="" fill="#155724" transform="translate(0,0)"/>
<path d="" fill="#155724" transform="translate(0,0)"/>
<path d="" fill="#155724" transform="translate(0,0)"/>
<path d="" fill="#155724" transform="translate(0,0)"/>
<path d="" fill="#155724" transform="translate(0,0)"/>
<path d="" fill="#155724" transform="translate(0,0)"/>
<path d="" fill="#155724" transform="translate(0,0)"/>
<path d="" fill="#155724" transform="translate(0,0)"/>
<path d="" fill="#155724" transform="translate(0,0)"/>
<path d="" fill="#155724" transform="translate(0,0)"/>
<path d="" fill="#155724" transform="translate(0,0)"/>
<path d="" fill="#155724" transform="translate(0,0)"/>
<path d="" fill="#155724" transform="translate(0,0)"/>
<path d="" fill="#155724" transform="translate(0,0)"/>
<path d="" fill="#155724" transform="translate(0,0)"/>
<path d="" fill="#155724" transform="translate(0,0)"/>
<path d="" fill="#155724" transform="translate(0,0)"/>
<path d="" fill="#155724" transform="translate(0,0)"/>
<path d="" fill="#155724" transform="translate(0,0)"/>
<path d="" fill="#155724" transform="translate(0,0)"/>
<path d="" fill="#155724" transform="translate(0,0)"/>
<path d="" fill="#155724" transform="translate(0,0)"/>
<path d="" fill="#155724" transform="translate(0,0)"/>
<path d="" fill="#155724" transform="translate(0,0)"/>
<path d="" fill="#155724" transform="translate(0,0)"/>
<path d="" fill="#155724" transform="translate(0,0)"/>
<path d="" fill="#155724" transform="translate(0,0)"/>
<path d="" fill="#155724" transform="translate(0,0)"/>
<path d="" fill="#155724" transform="translate(0,0)"/>
<path d="" fill="#155724" transform="translate(0,0)"/>
<path d="" fill="#155724" transform="translate(0,0)"/>
<path d="" fill="#155724" transform="translate(0,0)"/>
<path d="" fill="#155724" transform="translate(0,0)"/>
<path d="" fill="#155724" transform="translate(0,0)"/>
<path d="" fill="#155724" transform="translate(0,0)"/>
<path d="" fill="#155724" transform="translate(0,0)"/>
<path d="" fill="#155724" transform="translate(0,0)"/>
<path d="" fill="#155724" transform="translate(0,0)"/>
<path d="" fill="#155724" transform="translate(0,0)"/>
<path d="" fill="#155724" transform="translate(0,0)"/>
<path d="" fill="#155724" transform="translate(0,0)"/>
<path d="" fill="#155724" transform="translate(0,0)"/>
<path d="" fill="#155724" transform="translate(0,0)"/>
<path d="" fill="#155724" transform="translate(0,0)"/>
<path d="" fill="#155724" transform="translate(0,0)"/>
<path d="" fill="#155724" transform="translate(0,0)"/>
<path d="" fill="#155724" transform="translate(0,0)"/>
<path d="" fill="#155724" transform="translate(0,0)"/>
<path d="" fill="#155724" transform="translate(0,0)"/>
<path d="" fill="#155724" transform="translate(0,0)"/>
<path d="" fill="#155724" transform="translate(0,0)"/>
<path d="" fill="#155724" transform="translate(0,0)"/>
<path d="" fill="#155724" transform="translate(0,0)"/>
<path d="" fill="#155724" transform="translate(0,0)"/>
<path d="" fill="#155724" transform="translate(0,0)"/>
<path d="" fill="#155724" transform="translate(0,0)"/>
<path d="" fill="#155724" transform="translate(0,0)"/>
<path d="" fill="#155724" transform="translate(0,0)"/>
<path d="" fill="#155724" transform="translate(0,0)"/>
<path d="" fill="#155724" transform="translate(0,0)"/>
<path d="" fill="#155724" transform="translate(0,0)"/>
<path d="" fill="#155724" transform="translate(0,0)"/>
<path d="" fill="#155724" transform="translate(0,0)"/>
<path d="" fill="#155724" transform="translate(0,0)"/>
<path d="" fill="#155724" transform="translate(0,0)"/>
<path d="" fill="#155724" transform="translate(0,0)"/>
<path d="" fill="#155724" transform="translate(0,0)"/>
<path d="" fill="#155724" transform="translate(0,0)"/>
<path d="" fill="#155724" transform="translate(0,0)"/>
<path d="" fill="#155724" transform="translate(0,0)"/>
<path d="" fill="#155724" transform="translate(0,0)"/>
<path d="" fill="#155724" transform="translate(0,0)"/>
<path d="" fill="#155724" transform="translate(0,0)"/>
<path d="" fill="#155724" transform="translate(0,0)"/>
<path d="" fill="#155724" transform="translate(0,0)"/>
<path d="" fill="#155724" transform="translate(0,0)"/>
<path d="" fill="#155724" transform="translate(0,0)"/>
<path d="" fill="#155724" transform="translate(0,0)"/>
<path d="" fill="#155724" transform="translate(0,0)"/>
<path d="" fill="#155724" transform="translate(0,0)"/>
<path d="" fill="#155724" transform="translate(0,0)"/>
</svg>
